<?xml version="1.0" encoding="UTF-8"?>
<svg width="124px" height="50px" viewBox="0 0 124 50" version="1.1" fill="#21b1ed" xmlns="http://www.w3.org/2000/svg" xmlns:xlink="http://www.w3.org/1999/xlink">
    <!-- Generator: Sketch 51 (57462) - http://www.bohemiancoding.com/sketch -->
    <title>电影院logo</title>
    <desc>Created with Sketch.</desc>
    <defs>
        <polygon id="path-1"  points="26.5535038 29.8959375 13.5842798 29.8959375 13.5842798 22.6424766 26.5535038 22.6424766"></polygon>
    </defs>
    <g id="电影院logo" stroke="none" stroke-width="1"  fill-rule="evenodd">
        <g id="Group-2" transform="translate(4.000000, 10.000000)">
            <g id="Group-Copy">
                <path d="M13.287065,5.01536719 C13.3821718,4.64646094 13.4798747,4.32232031 13.5832414,4.02419531 C13.70006,3.70028906 13.8430743,3.38013281 14.0099243,3.06935156 C14.3356004,2.46935156 14.7325476,1.89653906 15.1901461,1.36755469 C15.6302808,0.858023438 16.0697075,0.463335938 16.5240021,0.150679688 C15.1644224,0.446460938 9.61612914,2.15247656 9.01362839,10.4631797 C8.39201186,19.0274766 2.52653841,20.5802109 1.40201194,20.8009922 C1.90775385,21.0220078 2.4861829,21.1867734 3.1675067,21.3011484 C3.84363857,21.4077891 4.51788246,21.4455234 5.18174248,21.4061484 C5.53833419,21.3859922 5.86306628,21.3470859 6.17434654,21.2828672 C6.47335494,21.2188828 6.79313109,21.1368516 7.15066679,21.0292734 C7.81122285,20.8323984 8.4389753,20.5811484 9.01693235,20.2795078 C10.123051,19.6959141 11.2166619,18.8966953 12.2670853,17.9064609 C13.2665332,16.9497422 14.1014912,15.9431016 14.7481234,14.9113828 C14.1781903,13.7870859 13.7342796,12.5606016 13.3970397,11.1634922 C13.2401016,10.5077109 13.121631,9.82380469 13.0409199,9.13192969 C12.952657,8.38310156 12.9281133,7.70786719 12.9637489,7.06286719 C12.9986765,6.39325781 13.1081791,5.70466406 13.287065,5.01536719" id="Fill-1" ></path>
                <path d="M21.9627218,11.9880234 C14.7253969,7.11794531 16.4196205,1.22271094 16.7674803,0.240914062 C15.7777082,0.983882812 14.9422783,2.01747656 14.3508694,3.24114844 C13.7899041,4.39192969 13.465172,5.72271094 13.4130167,7.09005469 C13.3660532,8.36060156 13.5185074,9.69466406 13.8630633,11.0523984 C14.1646676,12.2320078 14.6012624,13.4282578 15.1907833,14.6988047 C16.6221061,14.8394297 17.9056946,15.0761484 19.1121121,15.4248984 C20.5866224,15.8514609 21.8241915,16.4022422 22.8942026,17.1072422 C24.0951922,17.8905234 25.1132839,18.8901328 25.8382672,20.0024766 C26.2170427,20.5867734 26.526199,21.2106797 26.7558242,21.8547422 C26.9894614,22.5184922 27.1216198,23.1236484 27.1676392,23.7044297 C27.5449987,22.6007578 29.099276,16.7922422 21.9627218,11.9880234" id="Fill-3" ></path>
                <path d="M22.6658754,17.4596719 C21.5802884,16.7830312 20.3429553,16.2470156 18.9836117,15.8656875 C17.8102338,15.5352187 16.5504809,15.3137344 15.1460618,15.1845937 C14.46993,16.2470156 13.6345,17.2492031 12.5862006,18.2392031 C12.0934385,18.7030312 11.556073,19.1488125 10.9875558,19.564125 C10.393315,20.0002969 9.79506219,20.3659219 9.20978923,20.6549062 C8.6054005,20.9556094 7.9483844,21.2042812 7.25880069,21.396 C6.88852115,21.4998281 6.55765313,21.5781094 6.2437769,21.6385781 C5.90512098,21.7004531 5.55277721,21.7365469 5.1964215,21.7470937 C5.1128785,21.7499062 5.02815552,21.7515469 4.94508452,21.7515469 C4.34329176,21.7515469 3.72851915,21.6917812 3.1182305,21.574125 C2.44917854,21.4435781 1.87995339,21.259125 1.37444747,21.0205312 C2.2365451,21.9763125 6.51257767,26.0464687 14.1584137,22.3623281 C21.866789,18.6474844 26.1440016,22.8055312 26.9548878,23.7158437 C26.7934657,22.5111562 26.3127395,21.2952187 25.5530647,20.1906094 C24.8297334,19.1324062 23.8309934,18.1874062 22.6658754,17.4596719" id="Fill-5" ></path>
                <path d="M3.8248296,18.8334141 C3.78919403,18.7729453 0.80146996,13.0572422 2.8267976,6.21021094 C0.0278712648,10.0919297 -0.837058332,15.2134922 0.886664936,19.9701328 L1.13776592,19.9370859 C1.24915658,19.9237266 2.4527421,19.7406797 3.83072953,18.8453672 L3.8248296,18.8334141 Z" id="Fill-7"></path>
                <path d="M3.39800513,16.5825938 C2.02119769,10.1820469 5.33436184,3.50071875 11.6184943,0.8199375 C12.4661961,0.459234375 13.3292377,0.188765625 14.1988872,9.375e-05 C12.4938077,0.09571875 10.7736244,0.482203125 9.11314839,1.1911875 C6.68780556,2.2243125 4.68017771,3.81923438 3.16932388,5.75376563 C1.82296007,10.3707188 2.63337433,14.3267344 3.39800513,16.5825938" id="Fill-10"></path>
                <mask id="mask-2" >
                    <use xlink:href="#path-1"></use>
                </mask>
                <g id="Clip-13"></g>
                <path d="M24.0996053,22.6424766 L24.0925254,22.6539609 C24.0578338,22.7148984 20.5676718,28.1416172 13.5842798,29.8244297 C18.3681783,30.2903672 23.2665354,28.4739609 26.5535038,24.6121641 L26.3991617,24.4122422 C26.3316665,24.3238828 25.5696317,23.3802891 24.0996053,22.6424766" id="Fill-12"></path>
                <path d="M22.3448484,24.1466953 C17.4505033,28.5297422 9.96726932,29.0219297 4.48859521,24.9569297 C3.74921611,24.4080234 3.08134414,23.8014609 2.48309133,23.1482578 C3.4174041,24.5664609 4.61508969,25.8522422 6.06411226,26.9261484 C8.17888283,28.4955234 10.572602,29.4255234 13.0144647,29.7573984 C17.7138761,28.6075547 20.7577675,25.9319297 22.3448484,24.1466953" id="Fill-15"></path>
                <path d="M17.2351795,3.19804688 C17.3057427,3.19804688 23.7833927,3.485625 28.7424011,8.65101563 C26.756721,4.30265625 22.7221135,0.99796875 17.7123658,0.1021875 L17.6141909,0.335625 C17.5721834,0.436875 17.1299248,1.56375 17.2212557,3.19757813 L17.2351795,3.19804688 Z" id="Fill-17"></path>
                <path d="M28.9684392,9.17369531 C25.6158635,5.70658594 21.7606139,4.42619531 19.4107901,3.95510156 C25.6802907,5.97166406 29.8508326,12.1619766 29.0446663,18.9075234 C28.9365796,19.8171328 28.7418819,20.6955703 28.4711932,21.5365078 C29.2395999,20.0226797 29.7625696,18.3499453 29.9752031,16.5679922 C30.2860113,13.9640859 29.89992,11.4401016 28.9684392,9.17369531" id="Fill-19"></path>
            </g>
            <g id="topLogo1" transform="translate(35.386089, 1.071429)">
                <path d="M4.46897385,22.4658509 L6.48158135,22.4658509 L6.48158135,22.6664435 C6.29640545,22.6810667 6.17492879,22.7150816 6.1173114,22.7694419 C6.059694,22.8238022 6.03088531,22.9013689 6.03088531,23.0026189 C6.03088531,23.1149953 6.06049425,23.2504192 6.11987217,23.4095263 L7.14722227,26.2678917 L8.17985397,23.9410491 L7.90713165,23.2087747 C7.82342639,22.9918104 7.71331315,22.8417633 7.57711204,22.7586334 C7.5001288,22.707929 7.35688556,22.677252 7.14722227,22.6664435 L7.14722227,22.4658509 L9.4325521,22.4658509 L9.4325521,22.6664435 C9.18079611,22.677252 9.00266234,22.7244596 8.89783069,22.8072716 C8.82788958,22.8654466 8.7931591,22.9576366 8.7931591,23.0840004 C8.7931591,23.1566397 8.80692325,23.2305506 8.83493171,23.3065279 L9.9251808,26.159489 L10.9366861,23.4095263 C11.0066272,23.2143379 11.0415178,23.0587276 11.0415178,22.9430133 C11.0415178,22.8743477 11.0075875,22.8129937 10.9394069,22.7586334 C10.8712264,22.7042732 10.737586,22.6739141 10.5383259,22.6664435 L10.5383259,22.4658509 L12.0531831,22.4658509 L12.0531831,22.6664435 C11.7490913,22.7136511 11.5255039,22.9268006 11.3821006,23.3065279 L9.7784165,27.5857312 L9.56347162,27.5857312 L8.36326934,24.4129662 L6.96380691,27.5857312 L6.76982836,27.5857312 L5.22888322,23.4095263 C5.12757264,23.1456723 5.02802259,22.9674914 4.93023308,22.8753014 C4.83244356,22.7831115 4.67863713,22.7136511 4.46897385,22.6664435 L4.46897385,22.4658509 Z" id="Fill-55"></path>
                <path d="M12.2208497,22.4658509 L14.2334572,22.4658509 L14.2334572,22.6664435 C14.0482814,22.6810667 13.9268047,22.7150816 13.8691873,22.7694419 C13.8115699,22.8238022 13.7827612,22.9013689 13.7827612,23.0026189 C13.7827612,23.1149953 13.8123701,23.2504192 13.8717481,23.4095263 L14.8990982,26.2678917 L15.9317299,23.9410491 L15.6590076,23.2087747 C15.5753023,22.9918104 15.4653491,22.8417633 15.3289879,22.7586334 C15.2520047,22.707929 15.1087615,22.677252 14.8990982,22.6664435 L14.8990982,22.4658509 L17.184428,22.4658509 L17.184428,22.6664435 C16.932672,22.677252 16.7545382,22.7244596 16.6497066,22.8072716 C16.5797655,22.8654466 16.545035,22.9576366 16.545035,23.0840004 C16.545035,23.1566397 16.5589592,23.2305506 16.5868076,23.3065279 L17.6770567,26.159489 L18.688562,23.4095263 C18.7585031,23.2143379 18.7933937,23.0587276 18.7933937,22.9430133 C18.7933937,22.8743477 18.7594634,22.8129937 18.6912828,22.7586334 C18.6231023,22.7042732 18.4894619,22.6739141 18.2902018,22.6664435 L18.2902018,22.4658509 L19.805059,22.4658509 L19.805059,22.6664435 C19.5009672,22.7136511 19.2773798,22.9268006 19.1339765,23.3065279 L17.5302924,27.5857312 L17.3153475,27.5857312 L16.1151452,24.4129662 L14.7156828,27.5857312 L14.5217043,27.5857312 L12.9807591,23.4095263 C12.8794485,23.1456723 12.7798985,22.9674914 12.682109,22.8753014 C12.5843195,22.7831115 12.430513,22.7136511 12.2208497,22.6664435 L12.2208497,22.4658509 Z" id="Fill-57"></path>
                <path d="M19.9727256,22.4658509 L21.9853331,22.4658509 L21.9853331,22.6664435 C21.8001573,22.6810667 21.6786806,22.7150816 21.6210632,22.7694419 C21.5634458,22.8238022 21.5346371,22.9013689 21.5346371,23.0026189 C21.5346371,23.1149953 21.564246,23.2504192 21.623624,23.4095263 L22.6509741,26.2678917 L23.6836058,23.9410491 L23.4108834,23.2087747 C23.3271782,22.9918104 23.2170649,22.8417633 23.0808638,22.7586334 C23.0038806,22.707929 22.8606374,22.677252 22.6509741,22.6664435 L22.6509741,22.4658509 L24.9363039,22.4658509 L24.9363039,22.6664435 C24.6845479,22.677252 24.5064141,22.7244596 24.4015825,22.8072716 C24.3316414,22.8654466 24.2969109,22.9576366 24.2969109,23.0840004 C24.2969109,23.1566397 24.3106751,23.2305506 24.3386835,23.3065279 L25.4289326,26.159489 L26.4404379,23.4095263 C26.510379,23.2143379 26.5452696,23.0587276 26.5452696,22.9430133 C26.5452696,22.8743477 26.5113393,22.8129937 26.4431587,22.7586334 C26.3749782,22.7042732 26.2413378,22.6739141 26.0420777,22.6664435 L26.0420777,22.4658509 L27.5569349,22.4658509 L27.5569349,22.6664435 C27.2528431,22.7136511 27.0292557,22.9268006 26.8858524,23.3065279 L25.2821683,27.5857312 L25.0672234,27.5857312 L23.8670211,24.4129662 L22.4675587,27.5857312 L22.2735802,27.5857312 L20.732635,23.4095263 C20.6313244,23.1456723 20.5317744,22.9674914 20.4339849,22.8753014 C20.3361954,22.7831115 20.1823889,22.7136511 19.9727256,22.6664435 L19.9727256,22.4658509 Z" id="Fill-59"></path>
                <path d="M28.3010155,26.3818257 C28.4650651,26.3818257 28.6031867,26.4404776 28.7150605,26.5580993 C28.8267742,26.675562 28.8827911,26.8176617 28.8827911,26.9837626 C28.8827911,27.1501813 28.8258139,27.2921221 28.7123397,27.4097437 C28.5987054,27.5270475 28.461704,27.5856994 28.3010155,27.5856994 C28.140167,27.5856994 28.0031656,27.5270475 27.8895313,27.4097437 C27.7760571,27.2921221 27.7190799,27.1501813 27.7190799,26.9837626 C27.7190799,26.8140059 27.7760571,26.6711115 27.8895313,26.5553972 C28.0031656,26.4395239 28.140167,26.3818257 28.3010155,26.3818257" id="Fill-61"></path>
                <path d="M29.7842793,22.4658509 L32.0433612,22.4658509 L32.0433612,22.6664435 C31.9001179,22.6664435 31.7996076,22.6918752 31.7418301,22.7424207 C31.6843728,22.7931252 31.6554041,22.8598834 31.6554041,22.9430133 C31.6554041,23.029958 31.7165425,23.1637924 31.8389795,23.3443575 C31.8773911,23.4022147 31.9350085,23.4928151 32.0118316,23.6156821 L32.3525745,24.1797892 L32.7456531,23.6156821 C32.9972491,23.2577308 33.1230471,23.0318654 33.1230471,22.9377681 C33.1230471,22.8616319 33.0932781,22.7974168 33.0340602,22.7449639 C32.9745222,22.6928289 32.8784932,22.6664435 32.7456531,22.6664435 L32.7456531,22.4658509 L34.3704636,22.4658509 L34.3704636,22.6664435 C34.1992119,22.677252 34.0506871,22.7260491 33.9248891,22.8129937 C33.7537975,22.9358607 33.5196468,23.2035294 33.2225971,23.6156821 L32.5675194,24.5213689 L33.7624401,26.3004761 C34.0559687,26.7379015 34.2656319,27.0011197 34.3914299,27.0896538 C34.5172279,27.178029 34.6796769,27.2277798 34.878777,27.2385883 L34.878777,27.4339356 L32.6147336,27.4339356 L32.6147336,27.2385883 C32.7719011,27.2385883 32.894178,27.202666 32.9815644,27.1303446 C33.0479844,27.0796401 33.0811144,27.0128819 33.0811144,26.9294341 C33.0811144,26.8466221 32.9692406,26.6366515 32.7456531,26.3004761 L32.0433612,25.2372716 L31.2728886,26.3004761 C31.0352168,26.6294988 30.916461,26.8248462 30.916461,26.8863591 C30.916461,26.9728269 30.9556728,27.0518242 31.0344166,27.1222382 C31.1130003,27.1926523 31.2309559,27.2314356 31.3881234,27.2385883 L31.3881234,27.4339356 L29.8209303,27.4339356 L29.8209303,27.2385883 C29.9468883,27.2206272 30.0568415,27.1756448 30.15127,27.1033234 C30.2839501,26.9984176 30.5076976,26.7307488 30.8220325,26.3004761 L31.8284163,24.9174678 L30.916461,23.5505133 C30.6578229,23.1599776 30.4579226,22.9150385 30.3162798,22.8156958 C30.1747971,22.7160353 29.9974636,22.6664435 29.7842793,22.6664435 L29.7842793,22.4658509 Z" id="Fill-63"></path>
                <path d="M38.7365015,26.4957598 L38.7365015,23.9355812 C38.7155351,23.6896884 38.6526362,23.4655714 38.5476445,23.2630714 C38.4429729,23.0607304 38.3040509,22.9079812 38.1311988,22.8048238 C37.9581865,22.7018254 37.7894956,22.6503261 37.6252861,22.6503261 C37.3178333,22.6503261 37.0435104,22.7930616 36.8024777,23.0786915 C36.4844617,23.454604 36.3255337,24.0044058 36.3255337,24.7274611 C36.3255337,25.457987 36.4791801,26.0176436 36.7866329,26.406113 C37.0940857,26.7950593 37.4365891,26.989294 37.813983,26.989294 C38.131999,26.989294 38.4394518,26.8247826 38.7365015,26.4957598 L38.7365015,26.4957598 Z M38.7365015,26.875487 C38.5023508,27.1283736 38.2733217,27.3100514 38.0498942,27.4205204 C37.8263067,27.5308305 37.5851139,27.5856676 37.3264759,27.5856676 C36.8024777,27.5856676 36.3447395,27.3591664 35.9532614,26.9052104 C35.5619432,26.4514133 35.3662042,25.8683913 35.3662042,25.1558265 C35.3662042,24.4437386 35.5829096,23.7917331 36.0163204,23.2007637 C36.4494111,22.6096354 37.0066993,22.3139918 37.688185,22.3139918 C38.1110327,22.3139918 38.4602581,22.4530714 38.7365015,22.7315487 L38.7365015,21.8148944 C38.7365015,21.2472904 38.7233775,20.8983991 38.6971296,20.7680616 C38.6710417,20.637883 38.6297493,20.5495078 38.5738924,20.5023002 C38.5180355,20.4554105 38.4480944,20.4318862 38.3643892,20.4318862 C38.2733217,20.4318862 38.1529653,20.4606558 38.00268,20.5186719 L37.9344994,20.3287288 L39.3654913,19.7212288 L39.6012425,19.7212288 L39.6012425,25.4651397 C39.6012425,26.0475259 39.6143665,26.4026162 39.6404543,26.5308874 C39.6667023,26.6593175 39.7086349,26.7488053 39.7664124,26.7993509 C39.8240297,26.8500553 39.89125,26.875487 39.9680732,26.875487 C40.0625017,26.875487 40.1882997,26.8446511 40.3456272,26.7832971 L40.4032446,26.9729223 L38.9775342,27.5856676 L38.7365015,27.5856676 L38.7365015,26.875487 Z" id="Fill-65"></path>
                <path d="M43.8152345,22.3193324 L43.8152345,24.0114949 L43.6423823,24.0114949 C43.5095422,23.4801311 43.3390908,23.118365 43.1313481,22.9268324 C42.9234453,22.7352998 42.6585654,22.6394541 42.3373484,22.6394541 C42.0926345,22.6394541 41.8951349,22.7062123 41.7448495,22.8398878 C41.5947242,22.9737221 41.5195015,23.1221797 41.5195015,23.2847838 C41.5195015,23.4872838 41.5755184,23.6606962 41.6873922,23.805498 C41.7955849,23.9537967 42.0158113,24.1108375 42.3477515,24.2772563 L43.1129425,24.6625467 C43.8222766,25.020498 44.1769437,25.4924152 44.1769437,26.0778214 C44.1769437,26.530188 44.0119339,26.8943383 43.6815942,27.1709082 C43.3515745,27.447637 42.9818629,27.585763 42.5730996,27.585763 C42.279571,27.585763 41.9442697,27.5317206 41.5667158,27.423 C41.4513209,27.3870777 41.3572125,27.3691166 41.2837504,27.3691166 C41.2034061,27.3691166 41.1403471,27.4158473 41.0950534,27.5099447 L40.9222012,27.5099447 L40.9222012,25.7364007 L41.0950534,25.7364007 C41.1928429,26.2428097 41.3797793,26.6239674 41.6558627,26.8806688 C41.931786,27.1373701 42.2411594,27.2659592 42.5836627,27.2659592 C42.8246955,27.2659592 43.0212348,27.1926841 43.1731207,27.0461338 C43.3251666,26.8995836 43.4011895,26.7236279 43.4011895,26.5174721 C43.4011895,26.2679235 43.316524,26.0582708 43.1470328,25.8881962 C42.9775416,25.7184396 42.6393596,25.5032237 42.1328067,25.2428666 C41.6260937,24.9823505 41.2941535,24.7472661 41.1369861,24.5377724 C40.9796586,24.3316166 40.9010749,24.0711005 40.9010749,23.7567009 C40.9010749,23.3482041 41.0366358,23.0063065 41.3072775,22.731644 C41.5780792,22.4568226 41.928425,22.3193324 42.3581547,22.3193324 C42.5468516,22.3193324 42.7757207,22.3609768 43.044922,22.4441068 C43.2230557,22.498467 43.3418116,22.5254882 43.4011895,22.5254882 C43.4570464,22.5254882 43.5007396,22.5127724 43.532109,22.4876586 C43.5637986,22.4620679 43.6002896,22.4062771 43.6423823,22.3193324 L43.8152345,22.3193324 Z" id="Fill-67"></path>
                <path d="M46.2837876,20.8332304 L46.2837876,22.4657873 L47.4055662,22.4657873 L47.4055662,22.8455145 L46.2837876,22.8455145 L46.2837876,26.0673944 C46.2837876,26.3889466 46.3282811,26.6059109 46.417428,26.7179694 C46.5065749,26.8301868 46.6208494,26.8862955 46.7607316,26.8862955 C46.8761264,26.8862955 46.9878401,26.8491016 47.0961928,26.7751907 C47.2045456,26.7009619 47.2882508,26.5914466 47.3477888,26.4469627 L47.5521705,26.4469627 C47.4298936,26.8012582 47.2568813,27.0679733 47.0334539,27.24679 C46.8097064,27.4259246 46.5790768,27.5152535 46.341405,27.5152535 C46.1807165,27.5152535 46.0235491,27.4693175 45.8697426,27.3771276 C45.7159362,27.2849376 45.602462,27.1530106 45.5289998,26.9810286 C45.4556977,26.8093646 45.4190466,26.5445569 45.4190466,26.1866056 L45.4190466,22.8455145 L44.6591372,22.8455145 L44.6591372,22.6663799 C44.8511952,22.5869058 45.0475745,22.4522767 45.2485951,22.2624925 C45.4496158,22.0725495 45.6285498,21.8474788 45.7858773,21.5869627 C45.8663816,21.4497904 45.9780953,21.1983344 46.1213386,20.8332304 L46.2837876,20.8332304 Z" id="Fill-69"></path>
                <path d="M50.5921121,26.3653587 L50.5921121,24.4726036 C50.0644328,24.6895679 49.72385,24.8432708 49.5700436,24.9335534 C49.2941203,25.0928195 49.0966207,25.2589203 48.9778648,25.4324918 C48.859109,25.6060632 48.7997311,25.7960063 48.7997311,26.0021621 C48.7997311,26.2623603 48.8747937,26.4786888 49.0250791,26.6503528 C49.1752044,26.8220169 49.3482166,26.9080078 49.5439557,26.9080078 C49.8093158,26.9080078 50.1588613,26.7269659 50.5921121,26.3653587 M50.5921121,26.7180648 C50.0994834,27.1122563 49.7902701,27.340188 49.6644721,27.401383 C49.4757751,27.4916656 49.2749145,27.5369659 49.0615701,27.5369659 C48.7296299,27.5369659 48.4562674,27.4196621 48.2413225,27.1845777 C48.0265377,26.9496523 47.9191453,26.6403391 47.9191453,26.256956 C47.9191453,26.0148779 47.9714811,25.8050663 48.0763127,25.6276801 C48.2195559,25.3819462 48.4684311,25.1505177 48.8232582,24.9335534 C49.1777652,24.7165891 49.7675432,24.4527351 50.5921121,24.1416735 L50.5921121,23.9463261 C50.5921121,23.4512025 50.5160891,23.1112123 50.3642033,22.9268324 C50.2121574,22.7424525 49.9911307,22.6502626 49.7012832,22.6502626 C49.4810567,22.6502626 49.306284,22.7117755 49.1769649,22.8346425 C49.0441248,22.9576684 48.9778648,23.0984965 48.9778648,23.2577626 L48.988268,23.572321 C48.988268,23.7387398 48.9472956,23.866852 48.8651908,23.9572936 C48.782926,24.047894 48.6755336,24.0928764 48.5428535,24.0928764 C48.4135345,24.0928764 48.3079026,24.0459867 48.2257978,23.9518893 C48.143533,23.8579509 48.1025606,23.7293619 48.1025606,23.5667578 C48.1025606,23.2560141 48.256207,22.9703842 48.5638198,22.7098681 C48.8712727,22.449352 49.3027629,22.3193324 49.8584506,22.3193324 C50.2846593,22.3193324 50.6342048,22.3935612 50.906607,22.541542 C51.1127492,22.6536005 51.2647951,22.8290793 51.3625847,23.0678195 C51.4254836,23.2232708 51.4568531,23.5414851 51.4568531,24.0224623 L51.4568531,25.7090616 C51.4568531,26.1828862 51.4656558,26.4731256 51.483101,26.5799388 C51.5007063,26.6864341 51.529355,26.7578018 51.5695271,26.794042 C51.6096992,26.8301232 51.6561133,26.8480844 51.7086091,26.8480844 C51.7643059,26.8480844 51.8134407,26.8356864 51.8553734,26.8102547 C51.9288356,26.763365 52.0701582,26.631438 52.2798215,26.4144737 L52.2798215,26.7180648 C51.8885034,27.260396 51.5146305,27.5317206 51.158203,27.5317206 C50.9869513,27.5317206 50.8507502,27.4702076 50.7492795,27.3473407 C50.648129,27.2243148 50.5954731,27.0145031 50.5921121,26.7180648" id="Fill-71"></path>
                <path d="M54.0409771,22.3193324 L54.0409771,23.4365793 C54.4428584,22.691907 54.8551429,22.3193324 55.2779905,22.3193324 C55.4702085,22.3193324 55.6291365,22.3798917 55.7549345,22.5010102 C55.8807325,22.6222877 55.9436314,22.762321 55.9436314,22.9212692 C55.9436314,23.0625742 55.8981777,23.1817853 55.8072703,23.2792206 C55.7165229,23.3769737 55.6081702,23.4257708 55.4823722,23.4257708 C55.3599353,23.4257708 55.2229339,23.3633042 55.0710481,23.2385298 C54.9188421,23.1140734 54.8061681,23.0516068 54.732866,23.0516068 C54.669967,23.0516068 54.6017864,23.087688 54.5284843,23.1600094 C54.3711568,23.308467 54.2087078,23.5524525 54.0409771,23.8922838 L54.0409771,26.2731688 C54.0409771,26.5481491 54.0742672,26.7558944 54.1405272,26.8971994 C54.1859809,26.9946346 54.2663251,27.0760161 54.38172,27.1411849 C54.4971148,27.2060357 54.6629249,27.2386201 54.8796303,27.2386201 L54.8796303,27.4339674 L52.4214483,27.4339674 L52.4214483,27.2386201 C52.6660021,27.2386201 52.847817,27.198883 52.9665728,27.1194089 C53.0537991,27.0617108 53.1150976,26.9695208 53.1501482,26.8428391 C53.1674334,26.7813261 53.1762361,26.6060063 53.1762361,26.3165616 L53.1762361,24.3912221 C53.1762361,23.8128097 53.1647126,23.4683689 53.1421458,23.3580589 C53.119419,23.2479078 53.0773262,23.1671621 53.0163478,23.1166166 C52.9552094,23.0659121 52.8791864,23.0407983 52.788439,23.0407983 C52.6799263,23.0407983 52.5576494,23.0678195 52.4214483,23.1221797 L52.3691125,22.9268324 L53.8209107,22.3193324 L54.0409771,22.3193324 Z" id="Fill-73"></path>
                <path d="M56.6248771,26.3818257 C56.7889266,26.3818257 56.9270483,26.4404776 57.0389221,26.5580993 C57.1506358,26.675562 57.2066527,26.8176617 57.2066527,26.9837626 C57.2066527,27.1501813 57.1496755,27.2921221 57.0362012,27.4097437 C56.9225669,27.5270475 56.7855656,27.5856994 56.6248771,27.5856994 C56.4640285,27.5856994 56.3270272,27.5270475 56.2133929,27.4097437 C56.0999186,27.2921221 56.0429414,27.1501813 56.0429414,26.9837626 C56.0429414,26.8140059 56.0999186,26.6711115 56.2133929,26.5553972 C56.3270272,26.4395239 56.4640285,26.3818257 56.6248771,26.3818257" id="Fill-75"></path>
                <path d="M62.3798942,25.5464099 C62.2504151,26.2011175 61.9972187,26.7043475 61.6198248,27.0570536 C61.2425909,27.4097596 60.8248648,27.5857153 60.3672867,27.5857153 C59.8221622,27.5857153 59.3468187,27.3492004 58.9415764,26.8753758 C58.536174,26.4017102 58.3335528,25.7616258 58.3335528,24.9552816 C58.3335528,24.1742102 58.5581006,23.539689 59.0071962,23.051718 C59.4559716,22.5632702 59.9951744,22.3192847 60.6240042,22.3192847 C61.0958266,22.3192847 61.4834636,22.4488275 61.7875554,22.7071183 C62.0914872,22.965727 62.2435331,23.2341905 62.2435331,23.5126678 C62.2435331,23.6498401 62.2008002,23.7614217 62.1151743,23.8461411 C62.0295485,23.9311784 61.9098323,23.9736175 61.756186,23.9736175 C61.5498837,23.9736175 61.3944768,23.9051109 61.2896451,23.7676207 C61.2301072,23.6914845 61.1908953,23.5468416 61.1716895,23.3335332 C61.1524837,23.1202247 61.0817424,22.9576207 60.9594655,22.8455622 C60.8370285,22.7368416 60.6676974,22.6827993 60.450992,22.6827993 C60.1016065,22.6827993 59.8204016,22.8166336 59.6072173,23.0839845 C59.3240918,23.438439 59.1826091,23.9067004 59.1826091,24.4887686 C59.1826091,25.0819633 59.3232916,25.6053797 59.6044965,26.0590179 C59.8858614,26.512815 60.2658161,26.739793 60.7445206,26.739793 C61.087024,26.739793 61.3944768,26.6186745 61.667039,26.3762785 C61.859097,26.2101776 62.0460334,25.9080171 62.2278483,25.4705916 L62.3798942,25.5464099 Z" id="Fill-77"></path>
                <path d="M65.2520092,22.6719908 C65.0668333,22.6719908 64.8806971,22.7287353 64.6937607,22.8427011 C64.5068242,22.956667 64.3557386,23.1566238 64.2405038,23.4422537 C64.125109,23.7278836 64.0674916,24.0947361 64.0674916,24.54297 C64.0674916,25.2663432 64.2064136,25.8900559 64.4840974,26.414426 C64.7617812,26.9387961 65.1279717,27.2007427 65.5821888,27.2007427 C65.9211712,27.2007427 66.2007756,27.0560999 66.420842,26.7668142 C66.6409084,26.4776874 66.7510216,25.9803385 66.7510216,25.2754033 C66.7510216,24.3930818 66.5676063,23.6989551 66.2007756,23.1925461 C65.9525406,22.8455622 65.6362852,22.6719908 65.2520092,22.6719908 M65.4144582,22.3192847 C66.1412376,22.3192847 66.7247737,22.6049146 67.1650666,23.1761745 C67.5389395,23.6644633 67.7258759,24.2249146 67.7258759,24.8575285 C67.7258759,25.3024245 67.6228048,25.7525657 67.4165025,26.2082702 C67.2103603,26.6636568 66.9265946,27.0073028 66.5648855,27.2385724 C66.2031763,27.4701599 65.8004947,27.5857153 65.3568408,27.5857153 C64.6335825,27.5857153 64.058689,27.2876874 63.6324803,26.6909959 C63.2725317,26.1884017 63.0926374,25.6242945 63.0926374,24.9988334 C63.0926374,24.54297 63.2016303,24.0901266 63.4202563,23.6399853 C63.6385621,23.189844 63.9260089,22.8573244 64.2822765,22.6422675 C64.638704,22.4270516 65.016098,22.3192847 65.4144582,22.3192847" id="Fill-79"></path>
                <path d="M69.8590318,23.3770214 C70.2085773,23.0154142 70.4147195,22.8073511 70.4774585,22.7533087 C70.634786,22.6158185 70.8042771,22.5090053 70.9859319,22.433346 C71.1675868,22.3572098 71.3476411,22.3193801 71.5257749,22.3193801 C71.8263456,22.3193801 72.0848236,22.4096627 72.3015291,22.5907047 C72.5180744,22.7712698 72.6632382,23.0333754 72.7365404,23.3770214 C73.096489,22.9430928 73.4004208,22.6584166 73.6486557,22.5226748 C73.8967306,22.3869331 74.1516875,22.3193801 74.4138467,22.3193801 C74.6688036,22.3193801 74.8951119,22.3869331 75.0924515,22.5226748 C75.2899511,22.6584166 75.4463183,22.8799904 75.5615531,23.1870783 C75.6383763,23.3968899 75.6769479,23.7259127 75.6769479,24.1743055 L75.6769479,26.311364 C75.6769479,26.6224256 75.6995147,26.8357341 75.7449685,26.9511305 C75.779859,27.0309225 75.8445185,27.0986344 75.938947,27.1545842 C76.0333755,27.2106929 76.1870219,27.2386678 76.4002062,27.2386678 L76.4002062,27.4338562 L74.0311712,27.4338562 L74.0311712,27.2386678 L74.1307212,27.2386678 C74.3368634,27.2386678 74.4975519,27.1973412 74.6129468,27.1138934 C74.693291,27.0560363 74.7509084,26.9638464 74.7857989,26.8373236 C74.7997231,26.7761285 74.8069253,26.6006497 74.8069253,26.311364 L74.8069253,24.1743055 C74.8069253,23.7694645 74.7597111,23.4838346 74.6652826,23.3174158 C74.5290814,23.0858283 74.3106155,22.970273 74.0102048,22.970273 C73.8248689,22.970273 73.6388927,23.0181164 73.4519563,23.1141211 C73.2650199,23.2096489 73.0387116,23.3878299 72.7731914,23.6480281 L72.7627883,23.7079515 L72.7731914,23.9411285 L72.7731914,26.311364 C72.7731914,26.6513542 72.791597,26.8627553 72.828248,26.9458852 C72.8648991,27.0291741 72.9338799,27.0986344 73.0353506,27.1545842 C73.1366611,27.2106929 73.3096734,27.2386678 73.5542272,27.2386678 L73.5542272,27.4338562 L71.1275747,27.4338562 L71.1275747,27.2386678 C71.3929348,27.2386678 71.57571,27.2060834 71.67526,27.1412325 C71.7748101,27.0759048 71.8436308,26.9784696 71.8823625,26.8481321 C71.8996478,26.7866191 71.9084504,26.6078024 71.9084504,26.311364 L71.9084504,24.1743055 C71.9084504,23.7694645 71.850673,23.4782714 71.7355982,23.3008852 C71.5817918,23.0696156 71.3668469,22.9539013 71.0907636,22.9539013 C70.9022267,22.9539013 70.7151302,23.0063542 70.5299543,23.11126 C70.2399468,23.2702082 70.0161992,23.4493428 69.8590318,23.6480281 L69.8590318,26.311364 C69.8590318,26.636731 69.8809584,26.8481321 69.9246516,26.9458852 C69.9683448,27.0433204 70.0328443,27.1165956 70.1184701,27.1653927 C70.204096,27.2145077 70.3779084,27.2386678 70.6400675,27.2386678 L70.6400675,27.4338562 L68.2657509,27.4338562 L68.2657509,27.2386678 C68.4859773,27.2386678 68.6396237,27.2145077 68.7270101,27.1653927 C68.8143965,27.1165956 68.8808165,27.0390288 68.9261102,26.9322157 C68.9715639,26.8257204 68.9942908,26.6187698 68.9942908,26.311364 L68.9942908,24.4130457 C68.9942908,23.8668997 68.978606,23.5145116 68.9472366,23.3552455 C68.9225891,23.2360343 68.8841775,23.1538581 68.8318417,23.1085579 C68.7793459,23.0634166 68.7078043,23.040846 68.6168969,23.040846 C68.5191073,23.040846 68.401952,23.0678672 68.2657509,23.1220685 L68.1871671,22.9268801 L69.6336838,22.3193801 L69.8590318,22.3193801 L69.8590318,23.3770214 Z" id="Fill-81"></path>
                <path d="M5.42707105,3.03039678 L1.35240111,3.03039678 C1.10304584,3.03039678 0.87881816,3.10319505 0.679558013,3.24863265 L0.193651342,2.31608359 C0.492621586,2.35582064 0.80391555,2.37568917 1.12817343,2.37568917 L13.6322678,2.37568917 C13.8064003,1.99214717 13.9872549,1.65136224 14.1741914,1.35365228 C14.3611278,1.05610126 14.4947681,0.861230769 14.5760727,0.768563972 C14.6568971,0.675897174 14.7348406,0.62964325 14.8097432,0.62964325 C14.8844858,0.62964325 15.0619793,0.738681711 15.342384,0.956917582 C15.6227886,1.17515345 15.9745748,1.46968446 16.3983827,1.8398748 C16.8218706,2.21038305 17.0774677,2.44848744 17.164694,2.55418799 C17.2517603,2.66020644 17.2954535,2.74603846 17.2954535,2.81216091 C17.2954535,2.95775746 17.164694,3.03039678 16.9030151,3.03039678 L6.90367676,3.03039678 C7.88765377,3.24211578 8.44238122,3.37769859 8.56705885,3.43714521 C8.69141639,3.49675078 8.75383523,3.59275549 8.75383523,3.72484144 C8.75383523,3.85724529 8.66052706,3.94991209 8.47359064,4.00252394 C8.28665421,4.05561264 8.17446034,4.11855612 8.13716909,4.19119545 C8.09971778,4.26399372 8.08099213,4.42612088 8.08099213,4.67710008 L7.96895831,6.91938226 L11.9872912,6.91938226 C12.3360365,6.25815777 12.569707,5.84791248 12.6883028,5.68928218 C12.8065785,5.53049294 12.9435799,5.45101884 13.099467,5.45101884 C13.255194,5.45101884 13.5636071,5.60980808 14.0247062,5.92722763 L15.1648904,6.70114639 C15.4638606,6.91286538 15.6135058,7.11123273 15.6135058,7.29624843 C15.6135058,7.57408987 15.339183,7.75274765 14.7910175,7.83206279 C14.6288886,10.0015467 14.4731616,11.7639643 14.3236765,13.1199513 C14.1741914,14.4759384 14.033989,15.3752673 13.9032296,15.8182559 C13.7724701,16.2615624 13.5575252,16.6382696 13.2583949,16.9491723 C12.9594247,17.2597571 12.5261739,17.51471 11.9592828,17.7130773 C11.3922316,17.9116036 10.8688737,18.0107873 10.3893689,18.0107873 C9.90954408,18.0107873 9.65730794,17.8025651 9.6323404,17.385644 C9.60721282,16.9690408 9.41755557,16.6118842 9.06240837,16.3143332 C8.70726117,16.0166232 8.19926783,15.7820157 7.53906855,15.6100338 C7.4017471,15.5702967 7.33340647,15.5242017 7.33340647,15.471113 C7.33340647,15.4183422 7.4017471,15.3917979 7.53906855,15.3917979 L8.82873784,15.4116664 C9.96236002,15.4116664 10.6852982,15.2859384 10.9969123,15.0344823 C11.3080462,14.7833442 11.5542005,14.3003006 11.7350551,13.5861464 C11.9155896,12.8718332 12.0682757,10.8678144 12.1929533,7.57408987 L7.91278136,7.57408987 C7.75081247,9.43918799 7.47040783,10.9738328 7.07172749,12.1773885 C6.6728871,13.3811032 6.01252777,14.4625867 5.09048945,15.4213622 C4.16829108,16.3806146 3.14670272,17.1278301 2.02524421,17.6636444 C0.903785696,18.1992998 0.268393903,18.4671276 0.118908781,18.4671276 C0.0816175251,18.4671276 0.0627318245,18.450438 0.0627318245,18.4175357 C0.0627318245,18.3844745 0.124990617,18.3213721 0.249668251,18.2290232 C2.35542387,16.7210816 3.74784417,15.0974258 4.4270892,13.3578968 C5.10601414,11.6186856 5.44563665,8.79767308 5.44563665,4.89533595 C5.44563665,4.32677826 5.43923472,3.70497292 5.42707105,3.03039678" id="Fill-83"></path>
                <path d="M35.0890005,2.73268681 C35.0890005,3.1693175 34.9736056,3.53632889 34.7432961,3.83403885 C34.5125065,4.13158987 34.1792859,4.28036538 33.7433143,4.28036538 C33.0453436,4.28036538 32.6967584,3.92018878 32.6967584,3.19904082 C32.6967584,2.47821075 32.6561061,1.9856303 32.5751217,1.72082261 C32.4939772,1.45649176 32.3289674,1.22490424 32.0797721,1.02637794 C31.8305769,0.828010597 31.7060593,0.708958399 31.7060593,0.66922135 C31.7060593,0.62964325 31.7556743,0.609774725 31.8555445,0.609774725 C32.1420309,0.609774725 32.5531951,0.679076138 33.0891968,0.81799686 C33.6248785,0.956917582 34.0920596,1.20837363 34.49106,1.5720471 C34.8895803,1.93587951 35.0890005,2.32291837 35.0890005,2.73268681 L35.0890005,2.73268681 Z M30.3790988,16.4235306 L32.1172235,16.4235306 L32.1172235,12.8320962 L30.3790988,12.8320962 L30.3790988,16.4235306 Z M30.3790988,12.1773885 L32.1172235,12.1773885 L32.1172235,9.06216287 L30.3790988,9.06216287 L30.3790988,12.1773885 Z M32.1172235,5.37170369 L30.5285839,5.37170369 C30.5034563,5.41144074 30.4536813,5.47088736 30.3789388,5.55036146 L30.3789388,8.40745526 L32.1172235,8.40745526 L32.1172235,5.37170369 Z M21.0149923,14.836115 C22.9338114,14.5452398 25.1456791,14.0621962 27.6501151,13.3876201 C27.7123739,13.3745863 27.7715917,13.3677516 27.8277687,13.3677516 C27.8837856,13.3677516 27.911794,13.3876201 27.911794,13.4273571 C27.911794,13.4670942 27.8493752,13.5265408 27.7248576,13.605856 C26.4414302,14.4261876 25.4353665,15.0974258 24.7063465,15.6198885 C23.9774865,16.1425102 23.1580391,16.7806872 22.2484846,17.5345785 C22.1364508,17.6269274 22.0617082,17.6734992 22.0242569,17.6734992 C21.9869656,17.6734992 21.9523952,17.6502928 21.9215059,17.6040389 C21.8901364,17.557626 21.7781026,17.2435443 21.5850843,16.661635 C21.391746,16.0797257 21.2017686,15.471113 21.0149923,14.836115 L21.0149923,14.836115 Z M30.4536813,4.71683713 L34.9395154,4.71683713 C35.4377458,3.83085989 35.7213514,3.34781633 35.7900121,3.26850118 C35.8583527,3.18902708 35.9302144,3.14944898 36.004957,3.14944898 C36.1544421,3.14944898 36.5592043,3.45701374 37.2197236,4.07214325 C37.880083,4.68711381 38.2104227,5.05762206 38.2104227,5.18319113 C38.2104227,5.3090781 38.085745,5.37170369 37.8365498,5.37170369 L34.6218195,5.37170369 C34.5718844,5.51745918 34.4721743,5.62315973 34.3226892,5.68928218 L34.3226892,8.40745526 L34.6403851,8.40745526 C34.7399351,8.20908791 34.8956621,7.92822645 35.1077261,7.56407614 C35.31947,7.20040267 35.4534305,6.98868367 35.5096074,6.92923705 C35.5657844,6.86963148 35.6403669,6.83990816 35.7338351,6.83990816 C35.8273033,6.83990816 36.0358463,6.98566366 36.3599441,7.27653885 L37.3319175,8.20908791 C37.6683391,8.5134737 37.8365498,8.73170958 37.8365498,8.86379553 C37.8365498,8.99619937 37.7057904,9.06216287 37.4441114,9.06216287 L34.3226892,9.06216287 L34.3226892,12.1773885 L34.6591107,12.1773885 C34.7338533,12.0185993 34.8770965,11.7542684 35.0890005,11.3837602 C35.3007444,11.0135699 35.4409467,10.7918371 35.5096074,10.7190389 C35.5779481,10.6463995 35.6498098,10.6100004 35.7245523,10.6100004 C35.899005,10.6100004 36.3039272,10.9108893 36.939479,11.5126672 C37.5748708,12.114604 37.8927268,12.4847943 37.8927268,12.623874 C37.8927268,12.7627947 37.7678891,12.8320962 37.5188539,12.8320962 L34.3226892,12.8320962 L34.3226892,16.4235306 L35.1824687,16.4235306 C35.4689552,15.8018842 35.6931829,15.3619156 35.8553118,15.1039427 C36.0171206,14.8459698 36.1478801,14.7170628 36.2479103,14.7170628 C36.4222029,14.7170628 36.836568,15.0444961 37.4908455,15.6992037 C38.1449629,16.3539113 38.4721017,16.7608187 38.4721017,16.919449 C38.4721017,17.0251495 38.347264,17.0782382 38.0982288,17.0782382 L30.3789388,17.0782382 L30.3789388,17.8718666 C30.3789388,18.1363564 30.3477293,18.318352 30.2854705,18.4175357 C30.2230517,18.5167194 29.998664,18.616062 29.6126274,18.7152457 C29.2262708,18.8144294 28.852558,18.8638622 28.4911689,18.8638622 C28.3042325,18.8638622 28.2107643,18.7578438 28.2107643,18.5464427 L28.2483756,16.1258206 L28.2483756,7.89150942 C26.9647882,9.46589129 26.192235,10.2528438 25.930556,10.2528438 C25.880781,10.2528438 25.8559735,10.2164447 25.8559735,10.1436464 C25.8559735,10.0710071 25.9054284,9.94845801 26.0054586,9.77647606 C26.9895957,8.05713344 27.6998901,6.53584027 28.1361818,5.21291444 C27.911794,5.26600314 27.703091,5.39840699 27.5100728,5.60980808 C27.3165744,5.82152708 26.8058602,6.48974529 25.9772901,7.61382692 C25.14856,8.73822645 24.3915315,9.79634458 23.7065247,10.7884992 L27.5566468,10.7288936 C27.755907,10.7288936 27.8557771,10.7654517 27.8557771,10.8380911 C27.8557771,10.9108893 27.7371813,10.9868666 27.5006299,11.0663407 C25.1082278,11.8995471 23.3699431,12.5874749 22.2859359,13.1296472 C22.1860657,13.1827359 22.1113232,13.2091213 22.0617082,13.2091213 C21.9744819,13.2091213 21.9277478,13.1495157 21.9215059,13.0304635 C21.9149439,12.9114113 21.8216357,12.5245314 21.6412613,11.8698238 C21.4604067,11.2149572 21.3701395,10.8217194 21.3701395,10.6893155 C21.3701395,10.5174925 21.4384801,10.4183089 21.5756415,10.3916056 C22.0989995,10.2992567 22.4509457,10.203093 22.6318003,10.1039093 C22.8121747,10.0047257 23.0397634,9.71687049 23.3139262,9.2406617 C23.5879289,8.76461185 23.9056248,8.12961381 24.2671739,7.33598548 C23.5443957,7.62717857 22.6906981,8.05029867 21.706561,8.60582261 C21.6318184,8.64555965 21.5663587,8.66542818 21.5103418,8.66542818 C21.4543249,8.66542818 21.4075908,8.62918799 21.3701395,8.55623077 C21.3328482,8.48375039 21.2421008,8.1265938 21.0991777,7.48476099 C20.9556143,6.84324608 20.8842328,6.47973155 20.8842328,6.39342268 C20.8842328,6.30759066 20.9589753,6.24480612 21.1084605,6.20506907 C21.4197544,6.12575392 21.6566259,5.97379945 21.8187549,5.74872881 C21.9805637,5.52397606 22.2360008,4.91218446 22.5850662,3.913354 C22.9338114,2.91484144 23.2515073,1.69443721 23.5381539,0.252459184 C24.1860294,0.477529827 24.7998147,0.722310047 25.3791896,0.986799843 C25.9587245,1.25144859 26.2762604,1.41023783 26.3324373,1.46284969 C26.3886143,1.51593838 26.4164627,1.57872292 26.4164627,1.65136224 C26.4164627,1.72416052 26.3324373,1.79711774 26.1642265,1.86959812 C25.9961758,1.94239639 25.7965956,2.09784772 25.566126,2.33595212 C25.3354964,2.57405651 24.9214514,3.08984341 24.3231908,3.88347174 L22.5288892,6.32412127 L24.6970637,6.30425275 C24.9587427,5.65637991 25.3260535,4.6310051 25.7997965,3.22876413 C26.8092212,3.75790267 27.6501151,4.22759458 28.3231182,4.63752198 C28.6717034,3.4206146 28.9024931,2.0120157 29.014687,0.411407378 C31.0828312,1.04624647 32.1172235,1.50942151 32.1172235,1.8002967 C32.1172235,1.8665781 32.0548046,1.92602473 31.9304471,1.97879553 C31.8056094,2.03188422 31.6714889,2.18701766 31.5285658,2.44499058 C31.3850024,2.7029635 31.0266543,3.46035165 30.4536813,4.71683713 L30.4536813,4.71683713 Z" id="Fill-85"></path>
                <path d="M46.9014461,7.25663854 L54.3030402,7.25663854 L54.3030402,4.99480573 L46.9014461,4.99480573 L46.9014461,7.25663854 Z M54.3030402,4.33993917 L54.3030402,2.11768446 L47.219302,2.11768446 C47.1693669,2.2500883 47.063415,2.3427551 46.9014461,2.39536695 L46.9014461,4.33993917 L54.3030402,4.33993917 Z M47.0883825,1.4628179 L53.9480531,1.4628179 C54.259187,0.933997253 54.471251,0.596709184 54.5832848,0.450953689 C54.6954787,0.305675039 54.7950287,0.232717818 54.8824151,0.232717818 C55.044224,0.232717818 55.4958803,0.487511774 56.2375442,0.996622841 C56.9787279,1.50589286 57.3495598,1.83666405 57.3495598,1.98877747 C57.3495598,2.14104984 57.1374958,2.30953493 56.714168,2.49455063 L56.714168,5.70895997 L56.7514593,7.53432104 C56.7514593,7.68007653 56.7263317,7.77592229 56.6767167,7.82217622 C56.6267816,7.86858909 56.4553699,7.94456633 56.1626415,8.05026688 C55.8697531,8.15628532 55.5301306,8.24561421 55.1440941,8.31825353 C54.7577375,8.39105181 54.5335098,8.42729199 54.471251,8.42729199 C54.4086721,8.42729199 54.365299,8.39105181 54.3404915,8.31825353 C54.3152039,8.24561421 54.3030402,8.1097135 54.3030402,7.91134615 L46.8828805,7.91134615 C46.7830103,8.08348705 46.5090076,8.2287657 46.0603922,8.3478179 C45.6119368,8.46687009 45.2068545,8.52647567 44.8454655,8.52647567 C44.7083041,8.52647567 44.6399634,8.47370487 44.6399634,8.36768642 L44.6774147,7.49474294 C44.7022222,7.09784929 44.714706,6.73417582 44.714706,6.40340463 L44.714706,2.33592033 C44.714706,1.75401099 44.6961404,1.17861852 44.6586891,0.609742936 C45.7426963,0.914128728 46.5525407,1.19848705 47.0883825,1.4628179 L47.0883825,1.4628179 Z M46.4528306,10.7091523 L49.4996703,10.7091523 L49.4996703,9.87578689 C49.4996703,9.21440345 49.4868665,8.62565934 49.462059,8.1097135 C51.3560707,8.21573195 52.3030765,8.41425824 52.3030765,8.70497449 C52.3030765,8.83737834 52.1537515,8.98965071 51.8544611,9.1614737 L51.8544611,10.7091523 L54.9385921,10.7091523 C55.2871773,10.0081907 55.517967,9.57505691 55.6300008,9.40943289 C55.7421946,9.24412677 55.8324619,9.1614737 55.9011226,9.1614737 C55.9693032,9.1614737 56.1314321,9.25064364 56.3870293,9.42930141 C56.6423063,9.60780024 56.972646,9.86927002 57.3775683,10.213075 C57.7824905,10.5571978 58.0254438,10.7819505 58.1065883,10.8876511 C58.1875728,10.9936695 58.228065,11.0795016 58.228065,11.145624 C58.228065,11.2913795 58.0971455,11.3638599 57.8356265,11.3638599 L51.8544611,11.3638599 L51.8544611,13.7248764 L54.0788125,13.7248764 C54.4773328,12.931248 54.73293,12.4485224 54.8451239,12.2765404 C54.9571577,12.1047174 55.0506259,12.0185675 55.1253684,12.0185675 C55.2002711,12.0185675 55.4400234,12.1907084 55.8449457,12.5345133 C56.2497078,12.8786362 56.6174988,13.2191032 56.9478386,13.5563913 C57.2776981,13.8936794 57.443028,14.1087363 57.443028,14.2012441 C57.443028,14.3202963 57.3308342,14.3799019 57.1066065,14.3799019 L51.8544611,14.3799019 L51.8544611,17.1376531 L55.7609203,17.1376531 C56.1095055,16.502814 56.3684637,16.0598254 56.5365144,15.8083693 C56.7047252,15.5572312 56.8385256,15.4313442 56.9383957,15.4313442 C57.0753971,15.4313442 57.3183504,15.5836166 57.6674158,15.8876845 L58.8261655,16.8798391 C59.2373296,17.2369957 59.4429917,17.4781201 59.4429917,17.6040071 C59.4429917,17.7295761 59.3307979,17.7925196 59.1065702,17.7925196 L43.1259064,17.7925196 C42.8767112,17.7925196 42.6523235,17.865 42.4530633,18.0107555 L41.9671566,17.0782064 C42.2662869,17.1179435 42.5775809,17.1376531 42.9016787,17.1376531 L49.4996703,17.1376531 L49.4996703,14.3799019 L45.5932112,14.3799019 C45.3438559,14.3799019 45.1194682,14.4527002 44.9203681,14.5981378 L44.4343014,13.6654297 C44.7334316,13.7050078 45.0448857,13.7248764 45.3689835,13.7248764 L49.4996703,13.7248764 L49.4996703,11.3638599 L45.966924,11.3638599 C45.2443059,12.3032437 44.4218176,13.1728493 43.4997793,13.9729945 C42.5775809,14.7734576 42.0667067,15.1735302 41.9671566,15.1735302 C41.9546729,15.1735302 41.948591,15.1604965 41.948591,15.1337932 C41.948591,15.0940561 42.0169317,14.968487 42.1540931,14.7567681 C43.0013888,13.5134753 43.5807637,12.4683909 43.8922177,11.6218328 C44.2036717,10.7754337 44.4278994,9.83604984 44.5652209,8.80415816 C45.3875491,8.92321036 46.0573513,9.03574568 46.5744674,9.14160518 C47.0914234,9.24762363 47.3875128,9.33011774 47.4622553,9.38956436 C47.5369979,9.44916994 47.5742892,9.52196821 47.5742892,9.60780024 C47.5742892,9.69410911 47.4838619,9.77660322 47.3033274,9.85591837 C47.1226328,9.93523352 46.8391873,10.2199097 46.4528306,10.7091523 L46.4528306,10.7091523 Z" id="Fill-87"></path>
                <path d="M71.9096508,8.40747115 L70.7321754,8.40747115 C70.6574328,8.4867863 70.5325951,8.56610145 70.3583025,8.64557555 L70.3583025,15.1138134 C70.7068877,14.9947612 71.1742288,14.8230971 71.7600056,14.5980265 L73.5731929,13.9035818 C72.5885757,12.3559033 72.0340083,10.5238664 71.9096508,8.40747115 L71.9096508,8.40747115 Z M74.7506683,4.6969845 C75.28619,3.67860341 75.5822794,3.142948 75.6384563,3.0898593 C75.6944732,3.03724745 75.7474492,3.01054415 75.7972242,3.01054415 C75.8842905,3.01054415 76.1085182,3.16615443 76.4700673,3.47673921 C76.8314564,3.78780082 77.2019683,4.12842681 77.582243,4.49861715 C77.9620377,4.86912539 78.1523351,5.10389188 78.1523351,5.20307555 C78.1523351,5.30225922 78.0087718,5.35169211 77.7222853,5.35169211 L69.5172486,5.35169211 C69.2677333,5.35169211 69.0435056,5.42464933 68.8444055,5.57008693 L68.3584989,4.63753787 C68.6574691,4.67711597 68.9687631,4.6969845 69.2928609,4.6969845 L74.7506683,4.6969845 Z M67.8537065,1.78044407 L75.9094181,1.78044407 C76.4948748,0.656203493 76.8874733,0.093685832 77.0870536,0.093685832 C77.1990874,0.093685832 77.6382599,0.401409537 78.4045713,1.0163801 C79.1708826,1.63150962 79.5541983,2.02188638 79.5541983,2.18703356 C79.5541983,2.35265757 79.4232788,2.43515169 79.1615998,2.43515169 L67.8351409,2.43515169 C67.7351107,2.68660773 67.6854957,2.93806378 67.6854957,3.18904297 C67.6854957,4.419302 67.6109132,5.94043622 67.461268,7.75276354 L76.7317463,7.75276354 C77.3298469,6.74757516 77.6600265,6.19507123 77.7222853,6.09588756 C77.7845441,5.99670389 77.8594467,5.94711205 77.946673,5.94711205 C78.1084819,5.94711205 78.5447736,6.28122115 79.255068,6.94912147 C79.9652023,7.61718073 80.3205096,8.02726707 80.3205096,8.17922155 C80.3205096,8.33133497 80.1956719,8.40747115 79.9466367,8.40747115 L72.3020892,8.40747115 C72.7879959,9.86264188 73.4483552,11.046488 74.2833273,11.9591686 C74.7194589,11.21847 75.236575,10.0808777 75.8345155,8.54639188 C76.7192626,8.99621527 77.3640972,9.36656456 77.7690194,9.65743976 C78.1739416,9.9484739 78.4076122,10.1271317 78.470031,10.1930952 C78.5322898,10.2595355 78.5634992,10.3320159 78.5634992,10.411331 C78.5634992,10.4908051 78.4449034,10.5570865 78.208352,10.6098573 C77.7598967,10.7025241 77.3112813,10.8613134 76.8626658,11.0860661 C76.4142105,11.3111368 75.6973541,11.7477675 74.713217,12.3956403 C75.9468694,13.5597769 77.896738,14.4724574 80.5633029,15.1336819 C80.7251117,15.173419 80.8064163,15.2230108 80.8064163,15.2826164 C80.8064163,15.342063 80.7315136,15.4050065 80.5821886,15.47097 C80.1335732,15.682689 79.7316919,15.974041 79.3765446,16.3440724 C79.0213974,16.7142628 78.7625993,17.1179912 78.6009505,17.5544629 C78.5383716,17.6999005 78.4513054,17.7726988 78.3392715,17.7726988 C78.1148838,17.7726988 77.4948567,17.4484445 76.4795102,16.8004127 C75.4636836,16.1525398 74.5698137,15.2924712 73.7974206,14.2210014 C70.9812105,16.5093785 69.3303122,17.937846 68.8444055,18.5067215 C68.769663,18.5992294 68.6947604,18.6456423 68.6200178,18.6456423 C68.5326314,18.6456423 68.4486061,18.5663271 68.3677817,18.4075379 C68.2864771,18.2489076 68.0995407,17.7890704 67.8069724,17.0285033 C67.514084,16.2680952 67.3677998,15.848154 67.3677998,15.7686799 C67.3677998,15.6496277 67.4050911,15.5769884 67.4798336,15.5502851 C67.7789639,15.4579362 67.984626,15.3355461 68.0968199,15.1834327 C68.2088537,15.0314782 68.2650306,14.7833601 68.2650306,14.4392372 L68.2650306,8.40747115 L67.4050911,8.40747115 C67.2056709,10.7486191 66.8818931,12.5180304 66.4332777,13.7150693 C65.9846623,14.912426 65.3521514,15.934304 64.5362251,16.7807031 C63.7198187,17.6269433 63.2494367,18.0503813 63.1249191,18.0503813 C63.0876278,18.0503813 63.0690622,18.0238369 63.0690622,17.9710661 C63.0690622,17.9181364 63.1124353,17.8253106 63.1998217,17.6933836 C63.7604709,16.8069296 64.2090864,15.7885485 64.5455079,14.6376046 C64.8819295,13.4868197 65.1156,12.1311505 65.2463595,10.5701203 C65.377279,9.00956692 65.4427387,6.61517131 65.4427387,3.38756927 C65.4427387,2.47488874 65.4240131,1.67474352 65.3865618,0.98665679 C66.2961163,1.19853473 67.1182845,1.46286558 67.8537065,1.78044407 L67.8537065,1.78044407 Z" id="Fill-89"></path>
            </g>
        </g>
    </g>
</svg>