<?xml version="1.0" encoding="UTF-8"?>
<svg width="50px" height="50px" viewBox="0 0 50 50" version="1.1" fill="#21b1ed" xmlns="http://www.w3.org/2000/svg" xmlns:xlink="http://www.w3.org/1999/xlink">
    <!-- Generator: Sketch 51 (57462) - http://www.bohemiancoding.com/sketch -->
    <title>电影院logo</title>
    <desc>Created with Sketch.</desc>
    <defs>
        <polygon id="path-1"  points="26.5535038 29.8959375 13.5842798 29.8959375 13.5842798 22.6424766 26.5535038 22.6424766"></polygon>
    </defs>
    <g id="电影院logo" stroke="none" stroke-width="1"  fill-rule="evenodd">
        <g id="Group-2" transform="translate(4.000000, 10.000000)">
            <g id="Group-Copy">
                <path d="M13.287065,5.01536719 C13.3821718,4.64646094 13.4798747,4.32232031 13.5832414,4.02419531 C13.70006,3.70028906 13.8430743,3.38013281 14.0099243,3.06935156 C14.3356004,2.46935156 14.7325476,1.89653906 15.1901461,1.36755469 C15.6302808,0.858023438 16.0697075,0.463335938 16.5240021,0.150679688 C15.1644224,0.446460938 9.61612914,2.15247656 9.01362839,10.4631797 C8.39201186,19.0274766 2.52653841,20.5802109 1.40201194,20.8009922 C1.90775385,21.0220078 2.4861829,21.1867734 3.1675067,21.3011484 C3.84363857,21.4077891 4.51788246,21.4455234 5.18174248,21.4061484 C5.53833419,21.3859922 5.86306628,21.3470859 6.17434654,21.2828672 C6.47335494,21.2188828 6.79313109,21.1368516 7.15066679,21.0292734 C7.81122285,20.8323984 8.4389753,20.5811484 9.01693235,20.2795078 C10.123051,19.6959141 11.2166619,18.8966953 12.2670853,17.9064609 C13.2665332,16.9497422 14.1014912,15.9431016 14.7481234,14.9113828 C14.1781903,13.7870859 13.7342796,12.5606016 13.3970397,11.1634922 C13.2401016,10.5077109 13.121631,9.82380469 13.0409199,9.13192969 C12.952657,8.38310156 12.9281133,7.70786719 12.9637489,7.06286719 C12.9986765,6.39325781 13.1081791,5.70466406 13.287065,5.01536719" id="Fill-1" ></path>
                <path d="M21.9627218,11.9880234 C14.7253969,7.11794531 16.4196205,1.22271094 16.7674803,0.240914062 C15.7777082,0.983882812 14.9422783,2.01747656 14.3508694,3.24114844 C13.7899041,4.39192969 13.465172,5.72271094 13.4130167,7.09005469 C13.3660532,8.36060156 13.5185074,9.69466406 13.8630633,11.0523984 C14.1646676,12.2320078 14.6012624,13.4282578 15.1907833,14.6988047 C16.6221061,14.8394297 17.9056946,15.0761484 19.1121121,15.4248984 C20.5866224,15.8514609 21.8241915,16.4022422 22.8942026,17.1072422 C24.0951922,17.8905234 25.1132839,18.8901328 25.8382672,20.0024766 C26.2170427,20.5867734 26.526199,21.2106797 26.7558242,21.8547422 C26.9894614,22.5184922 27.1216198,23.1236484 27.1676392,23.7044297 C27.5449987,22.6007578 29.099276,16.7922422 21.9627218,11.9880234" id="Fill-3" ></path>
                <path d="M22.6658754,17.4596719 C21.5802884,16.7830312 20.3429553,16.2470156 18.9836117,15.8656875 C17.8102338,15.5352187 16.5504809,15.3137344 15.1460618,15.1845937 C14.46993,16.2470156 13.6345,17.2492031 12.5862006,18.2392031 C12.0934385,18.7030312 11.556073,19.1488125 10.9875558,19.564125 C10.393315,20.0002969 9.79506219,20.3659219 9.20978923,20.6549062 C8.6054005,20.9556094 7.9483844,21.2042812 7.25880069,21.396 C6.88852115,21.4998281 6.55765313,21.5781094 6.2437769,21.6385781 C5.90512098,21.7004531 5.55277721,21.7365469 5.1964215,21.7470937 C5.1128785,21.7499062 5.02815552,21.7515469 4.94508452,21.7515469 C4.34329176,21.7515469 3.72851915,21.6917812 3.1182305,21.574125 C2.44917854,21.4435781 1.87995339,21.259125 1.37444747,21.0205312 C2.2365451,21.9763125 6.51257767,26.0464687 14.1584137,22.3623281 C21.866789,18.6474844 26.1440016,22.8055312 26.9548878,23.7158437 C26.7934657,22.5111562 26.3127395,21.2952187 25.5530647,20.1906094 C24.8297334,19.1324062 23.8309934,18.1874062 22.6658754,17.4596719" id="Fill-5" ></path>
                <path d="M3.8248296,18.8334141 C3.78919403,18.7729453 0.80146996,13.0572422 2.8267976,6.21021094 C0.0278712648,10.0919297 -0.837058332,15.2134922 0.886664936,19.9701328 L1.13776592,19.9370859 C1.24915658,19.9237266 2.4527421,19.7406797 3.83072953,18.8453672 L3.8248296,18.8334141 Z" id="Fill-7"></path>
                <path d="M3.39800513,16.5825938 C2.02119769,10.1820469 5.33436184,3.50071875 11.6184943,0.8199375 C12.4661961,0.459234375 13.3292377,0.188765625 14.1988872,9.375e-05 C12.4938077,0.09571875 10.7736244,0.482203125 9.11314839,1.1911875 C6.68780556,2.2243125 4.68017771,3.81923438 3.16932388,5.75376563 C1.82296007,10.3707188 2.63337433,14.3267344 3.39800513,16.5825938" id="Fill-10"></path>
                <mask id="mask-2" >
                    <use xlink:href="#path-1"></use>
                </mask>
                <g id="Clip-13"></g>
                <path d="M24.0996053,22.6424766 L24.0925254,22.6539609 C24.0578338,22.7148984 20.5676718,28.1416172 13.5842798,29.8244297 C18.3681783,30.2903672 23.2665354,28.4739609 26.5535038,24.6121641 L26.3991617,24.4122422 C26.3316665,24.3238828 25.5696317,23.3802891 24.0996053,22.6424766" id="Fill-12"></path>
                <path d="M22.3448484,24.1466953 C17.4505033,28.5297422 9.96726932,29.0219297 4.48859521,24.9569297 C3.74921611,24.4080234 3.08134414,23.8014609 2.48309133,23.1482578 C3.4174041,24.5664609 4.61508969,25.8522422 6.06411226,26.9261484 C8.17888283,28.4955234 10.572602,29.4255234 13.0144647,29.7573984 C17.7138761,28.6075547 20.7577675,25.9319297 22.3448484,24.1466953" id="Fill-15"></path>
                <path d="M17.2351795,3.19804688 C17.3057427,3.19804688 23.7833927,3.485625 28.7424011,8.65101563 C26.756721,4.30265625 22.7221135,0.99796875 17.7123658,0.1021875 L17.6141909,0.335625 C17.5721834,0.436875 17.1299248,1.56375 17.2212557,3.19757813 L17.2351795,3.19804688 Z" id="Fill-17"></path>
                <path d="M28.9684392,9.17369531 C25.6158635,5.70658594 21.7606139,4.42619531 19.4107901,3.95510156 C25.6802907,5.97166406 29.8508326,12.1619766 29.0446663,18.9075234 C28.9365796,19.8171328 28.7418819,20.6955703 28.4711932,21.5365078 C29.2395999,20.0226797 29.7625696,18.3499453 29.9752031,16.5679922 C30.2860113,13.9640859 29.89992,11.4401016 28.9684392,9.17369531" id="Fill-19"></path>
            </g>
        </g>
    </g>
</svg>